<?xml version="1.0" encoding="utf-8"?>
<!-- Generator: $$$/GeneralStr/196=Adobe Illustrator 27.6.0, SVG Export Plug-In . SVG Version: 6.00 Build 0)  -->
<svg version="1.1" id="圖層_1" xmlns="http://www.w3.org/2000/svg" xmlns:xlink="http://www.w3.org/1999/xlink" x="0px" y="0px"
	 viewBox="0 0 100.01 90" style="enable-background:new 0 0 100.01 90;" xml:space="preserve">
<style type="text/css">
	.st0{fill:#FFFFFF;}
</style>
<path class="st0" d="M99.51,37.38c-0.92-8.21-4.02-15.63-9.29-22.05c-4.77-5.8-11.06-9.78-18.26-12.25
	c-5.74-1.96-11.73-2.74-17.81-2.99C52.73,0.03,51.31,0,49.89,0c-6.12,0-12.16,0.6-18.13,2.08c-8.04,2.01-15.03,5.87-20.55,11.9
	C3.02,22.93,0,33.78,0,45.5c0,6.99,1.55,13.7,4.49,20.15C9.26,76.1,17.41,82.82,28.25,86.69C34.38,88.88,40.69,90,47.07,90
	c0.79,0,1.57-0.01,2.36-0.05c7.54,0.18,14.77-0.63,21.8-2.96c12.88-4.26,21.66-12.6,26.12-25.06
	C100.22,53.95,100.46,45.7,99.51,37.38z M76.37,57.47c-4.11,8-11.14,12.15-20.12,13.36c-5.51,0.75-10.97,0.52-16.35-0.84
	c-0.69-0.17-1.35-0.02-2,0.16c-5.07,1.45-10.29,2.42-15.36,3.91c-0.96,0.29-1.2,0.02-0.93-1.02c1.08-4.09,1.94-8.22,3.23-12.25
	c0.2-0.66,0.15-1.2-0.19-1.77c-2.53-4.07-3.24-8.68-3.48-13.25c-0.3-5.93,1-11.67,4.66-16.61c3.85-5.19,9.15-8.26,15.57-9.59
	c2.75-0.57,5.5-0.86,7.81-0.71c6.02-0.13,11.38,0.64,16.39,3.01C72.2,25,76.31,30.16,78.16,37C80.05,43.99,79.71,50.95,76.37,57.47z
	"/>
</svg>
